<?xml version="1.0" encoding="UTF-8" standalone="no"?>
<svg
   id="svg8"
   version="1.1"
   viewBox="0 0 135.43663 43.858485"
   height="165.76433"
   width="511.88647"
   xmlns="http://www.w3.org/2000/svg"
   xmlns:svg="http://www.w3.org/2000/svg"
   xmlns:rdf="http://www.w3.org/1999/02/22-rdf-syntax-ns#"
   xmlns:cc="http://creativecommons.org/ns#"
   xmlns:dc="http://purl.org/dc/elements/1.1/">
  <defs
     id="defs2" />
  <metadata
     id="metadata5">
    <rdf:RDF>
      <cc:Work
         rdf:about="">
        <dc:format>image/svg+xml</dc:format>
        <dc:type
           rdf:resource="http://purl.org/dc/dcmitype/StillImage" />
      </cc:Work>
    </rdf:RDF>
  </metadata>
  <rect
     style="fill:#ffffff;fill-opacity:1;stroke:none;stroke-width:1.09936;stroke-dasharray:none;stroke-dashoffset:49.8;stroke-opacity:1;paint-order:fill markers stroke"
     id="rect31833"
     width="137.87061"
     height="46.398895"
     x="-1.2169855"
     y="-1.2702068"
     rx="0"
     ry="0" />
  <g
     id="g10"
     style="display:inline;fill:#000000;fill-opacity:1">
    <path
       style="font-weight:900;font-size:29.7674px;line-height:1.25;font-family:'Exo 2';-inkscape-font-specification:'Exo 2, Heavy';fill:#000000;fill-opacity:1;stroke-width:0.778484"
       d="m 90.044436,11.827677 h 5.983248 l 2.798135,9.436266 q 0.0893,0.297674 0.148837,0.803719 0.0893,0.506046 0.11907,0.982325 h 0.11907 q 0.05953,-0.595348 0.148837,-1.012092 0.119069,-0.446511 0.208371,-0.744185 l 2.857666,-9.466033 h 5.80465 l -6.51906,17.503231 q -0.74419,1.994416 -1.756279,3.363716 -0.982325,1.369301 -2.440927,2.053951 -1.458603,0.68465 -3.631623,0.68465 -0.773953,0 -1.339533,-0.0893 -0.565581,-0.05953 -0.982324,-0.148837 v -4.46511 q 0.327441,0.05954 0.773952,0.11907 0.476278,0.05953 0.982324,0.05953 1.399068,0 2.053951,-0.833487 0.68465,-0.80372 1.101394,-1.875346 l 0.05953,-0.148837 z"
       transform="scale(1.0393779,0.96211398)"
       id="path7" />
    <path
       style="font-weight:900;font-size:29.7674px;line-height:1.25;font-family:'Exo 2';-inkscape-font-specification:'Exo 2, Heavy';fill:#000000;fill-opacity:1;stroke-width:0.778484"
       d="m 63.611038,35.433225 q -0.68465,0 -1.577672,-0.119069 -0.893022,-0.0893 -1.48837,-0.238139 v -4.435343 q 0.476278,0.119069 0.893022,0.178604 0.386976,0.0893 0.863254,0.0893 0.684651,0 1.190696,-0.506045 0.535814,-0.476279 0.535814,-1.964649 V 11.827677 h 5.685573 v 17.800905 q 0,1.48837 -0.595348,2.798136 -0.56558,1.339533 -1.905113,2.17302 -1.339533,0.833487 -3.601856,0.833487 z"
       transform="scale(1.0393779,0.96211398)"
       id="path4" />
    <path
       style="font-weight:900;font-size:29.7674px;line-height:1.25;font-family:'Exo 2';-inkscape-font-specification:'Exo 2, Heavy';fill:#000000;fill-opacity:1;stroke-width:0.778484"
       d="m 63.878945,7.7197752 q 0,-1.5181374 0.863254,-2.0241832 0.893022,-0.5060458 2.143253,-0.5060458 1.220464,0 2.113486,0.5060458 0.922789,0.5060458 0.922789,2.0241832 0,1.4586027 -0.922789,1.9944159 -0.893022,0.5060459 -2.113486,0.5060459 -1.250231,0 -2.143253,-0.5060459 -0.863254,-0.5358132 -0.863254,-1.9944159 z"
       id="path3"
       transform="scale(1.0393779,0.96211398)" />
    <path
       style="font-weight:900;font-size:29.7674px;line-height:1.25;font-family:'Exo 2';-inkscape-font-specification:'Exo 2, Heavy';fill:#000000;fill-opacity:1;stroke-width:0.778484"
       d="m 54.383142,11.530003 q 2.559996,0 4.167436,1.428835 1.60744,1.428835 1.60744,4.613947 v 10.716264 h -5.685574 v -8.989755 q 0,-1.637207 -0.476278,-2.470694 -0.476279,-0.833487 -1.518138,-0.833487 -1.607439,0 -2.17302,1.309765 -0.535813,1.309766 -0.535813,3.78046 v 7.203711 H 44.083621 V 11.827677 h 4.286506 l 0.773952,2.17302 h 0.208372 q 0.773953,-1.160929 2.024183,-1.815812 1.279999,-0.654882 3.006508,-0.654882 z"
       transform="scale(1.0393779,0.96211398)"
       id="path2" />
    <path
       id="path1"
       style="font-weight:900;font-size:29.7674px;line-height:1.25;font-family:'Exo 2';-inkscape-font-specification:'Exo 2, Heavy';fill:#000000;fill-opacity:1;stroke-width:0.778484"
       d="m 33.099675,11.530214 c -1.607438,0 -3.026524,0.307569 -4.256908,0.922761 -1.21054,0.615192 -2.163255,1.557828 -2.857827,2.827903 -0.674727,1.270074 -1.011774,2.897333 -1.011774,4.881824 0,1.944801 0.376992,3.542434 1.131099,4.792663 0.754107,1.25023 1.775731,2.172936 3.06565,2.768283 1.309764,0.575502 2.798256,0.863141 4.465229,0.863141 1.428834,0 2.609742,-0.09911 3.542452,-0.297561 0.952557,-0.198449 1.825878,-0.506018 2.619674,-0.92276 v -4.078303 c -0.912866,0.436588 -1.796174,0.753853 -2.649505,0.952302 -0.853331,0.198449 -1.796059,0.298098 -2.827995,0.298098 -1.151005,0 -2.033816,-0.277942 -2.649008,-0.8336 -0.595344,-0.555657 -0.912916,-1.26021 -0.952609,-2.113541 h 10.150554 v -2.530342 c 0,-2.520304 -0.694564,-4.405575 -2.083708,-5.655804 -1.389144,-1.25023 -3.28409,-1.875064 -5.685324,-1.875064 z m 0.208321,3.869366 c 0.773952,0 1.359163,0.258013 1.756062,0.77398 0.416741,0.496123 0.634947,1.11126 0.654794,1.845522 H 30.83698 c 0.07938,-0.912866 0.337532,-1.577559 0.774119,-1.994302 0.456434,-0.416743 1.02217,-0.6252 1.696897,-0.6252 z"
       transform="scale(1.0393779,0.96211398)" />
  </g>
  <g
     id="g1018"
     transform="matrix(0.48139071,0,0,0.43619325,57.512349,4.9236496)"
     style="display:inline;opacity:1;stroke-width:1.47135">
    <g
       id="g1010"
       transform="matrix(0.49261847,0,0,0.49261847,-1.4356473,5.6931365)"
       style="stroke-width:1.47135">
      <ellipse
         style="fill:#000000;fill-opacity:1;stroke-width:0.389294"
         id="ellipse1004"
         cx="86.7631"
         cy="143.70882"
         rx="40.597324"
         ry="12.537492" />
      <g
         id="g1008"
         style="fill:#ffffff;fill-opacity:1;stroke-width:1.47135">
        <ellipse
           style="fill:#ffffff;fill-opacity:1;stroke-width:0.389294"
           id="ellipse1006"
           cx="86.7631"
           cy="140.53386"
           rx="40.597324"
           ry="12.537492" />
      </g>
    </g>
    <path
       id="path1012"
       style="fill:#000000;stroke-width:0.128936"
       d="m 45.637539,45.774373 h 11.3439 L 47.450909,75.28375 H 36.107025 Z" />
    <circle
       style="fill:#aa0000;fill-opacity:1;stroke-width:0.184042"
       id="circle1014"
       cx="54.539787"
       cy="34.651894"
       r="20.025862" />
    <ellipse
       style="fill:#000000;fill-opacity:1;stroke-width:0.068493"
       id="ellipse1016"
       cx="41.305485"
       cy="74.922646"
       rx="7.1427765"
       ry="2.2058723" />
  </g>
  <g
     id="layer2"
     style="fill:none">
    <path
       style="fill:none;fill-opacity:1;stroke:#ffffff;stroke-width:3.17183;stroke-linejoin:round;stroke-dasharray:25.3746, 12.6873;stroke-dashoffset:72.0004;stroke-opacity:1;paint-order:markers stroke fill"
       d="m 136.66934,8.9975993 c -2.13257,-0.4040338 -4.32289,-0.6722508 -6.39771,-1.2121056 -0.2738,-0.071253 -0.23944,-0.3930525 -0.41768,-0.5611855 -0.62596,-0.5905735 -1.4667,-1.1202111 -2.12461,-1.6712204 -0.45411,-0.3803343 -0.84694,-0.9550594 -1.092,-1.2312722 -0.85396,-0.9625409 -3.36698,-2.3481077 -4.90867,-2.7326077 -0.44347,-0.1105768 -0.94513,-0.098501 -1.38866,-0.209471 -0.43936,-0.1099765 -0.0893,-0.1875099 -0.72153,-0.1801704 -0.46936,0.00546 -1.06244,-0.052832 -1.53959,-0.019416 -0.35136,0.024847 -0.67168,0.1965631 -1.02442,0.200647 -0.70459,0.0086 -2.82536,0.075223 -3.27832,0.6420973 -0.08,0.1001795 -0.0191,0.2399424 -0.0991,0.3401083 -0.11307,0.1417891 -0.44804,0.1288471 -0.56108,0.2706703 -0.37274,0.467359 -0.50146,1.069244 -0.54663,1.5522207 -0.0196,0.2109269 -0.38297,0.5109293 -0.40269,0.7218534 -0.0571,0.6072338 0.57409,3.0836605 1.06999,3.6444312 0.27766,0.3139254 0.9294,0.5394317 1.1908,0.8904203 0.10138,0.1360788 0.0202,0.3345085 0.15944,0.4510153 0.35746,0.2990877 0.93805,0.4375297 1.34299,0.7006597 1.28385,0.834235 2.57896,1.658282 3.92992,2.442074 0.43224,0.250765 0.75861,0.639677 1.19081,0.890422 0.33672,0.195335 0.79967,0.351011 1.08477,0.590487 0.40264,0.338209 0.484,1.369215 0.63719,1.802595 0.087,0.246139 0.35264,1.292552 0.27365,1.39155 -0.0506,0.06352 -0.51144,0.207357 -0.5621,0.270869 -0.20234,0.253765 0.48483,0.0594 -0.0991,0.340111 -0.5937,0.285463 -1.32367,0.450909 -1.94254,0.701969 -0.17519,0.07108 -0.13552,0.300139 -0.30284,0.380815 -0.24398,0.117549 -0.52234,0.192678 -0.76645,0.310053 -0.43872,0.210928 -4.4114,0.968187 -4.71291,0.923086 -0.61928,-0.09267 -1.36072,-0.271983 -2.05604,-0.239486 -0.56322,0.02628 -1.18417,0.16078 -1.74468,0.02114 -0.41583,-0.103727 -1.0687,-0.201246 -1.44206,-0.360541 -0.1358,-0.05798 -0.16217,-0.222722 -0.31111,-0.259789 -0.1335,-0.03329 -0.26928,0.0867 -0.41018,0.08035 -0.36371,-0.01628 -2.51829,-1.17611 -2.686,-1.401305 -0.40251,-0.540451 -1.14056,-0.817669 -1.75938,-1.261303 -0.89283,-0.64007 -1.67191,-1.398994 -2.48914,-2.082072 -0.37203,-0.310942 -0.53088,-0.635395 -0.78063,-0.970757 -0.5537,-0.743488 -1.494643,-1.355895 -2.230901,-1.971902 -0.558876,-0.08439 -0.234213,-0.512868 -0.470505,-0.71079 -0.131059,-0.109717 -0.359549,-0.129912 -0.515431,-0.220551 -0.368524,-0.214155 -0.324128,-0.441885 -0.675606,-0.670621 -0.282944,-0.18414 -0.465453,-0.07206 -0.773409,-0.329956 -0.09278,-0.07771 -0.02973,-0.214098 -0.106249,-0.3006838 C 95.830937,9.5339705 94.880458,9.3476518 94.349786,9.0397737 92.35764,7.8840004 91.263192,7.4354152 88.833343,7.0691882 88.457568,7.012508 87.824468,6.8255344 87.445424,6.858803 c -1.320181,0.11583 -2.652849,0.3588452 -3.946705,0.6122604 -0.326505,0.063939 -3.237843,0.5921427 -3.277315,0.6419036 -1.280902,1.6149932 -1.815488,2.734757 -1.791677,4.847911 0.0034,0.301669 0.295544,0.599812 0.318605,0.901292 0.04395,0.57557 0.03385,1.307916 0.431812,1.84203 1.193825,1.603034 3.177041,2.838041 5.1292,3.973827 0.646333,0.376043 0.898187,1.14801 1.608442,1.451612 0.135795,0.05803 0.344808,-0.0063 0.462304,0.0702 0.275275,0.179285 0.575156,0.903706 0.834766,1.120904 0.131138,0.10969 0.366738,0.123689 0.515434,0.220552 0.6082,0.396113 1.060633,0.992307 1.608177,1.450881 0.627577,0.525593 2.688311,2.025214 2.906513,2.642515 0.101912,0.288287 1.462305,1.852542 1.205504,2.172736 -1.226383,1.52912 -2.871662,1.77571 -5.000339,2.585273 -0.518403,0.197164 -0.992479,0.461048 -1.533374,0.621831 -0.970453,0.28849 -3.478955,0.87077 -4.506812,0.882712 -0.745601,0.0086 -1.715621,-0.09278 -2.466211,-0.159152 -0.858353,-0.07596 -0.07852,-0.08364 -1.183828,-0.250394 -1.153659,-0.174002 -2.327837,-0.08779 -3.444706,-0.44897 C 72.336483,31.075347 69.810271,29.61793 67.158696,28.176384 66.578662,27.86103 65.712359,27.49543 65.246134,27.105049 65.054764,26.945126 65.007825,26.712343 64.829535,26.544404 64.496133,26.229695 63.710238,25.657826 63.327393,25.393468 61.801305,24.339663 60.048135,23.22061 58.311667,22.361112 57.033513,21.728447 55.65986,21.203388 54.388962,20.559826 53.810118,20.266783 53.313761,19.892305 52.73486,19.599394 50.547856,18.49276 48.14429,17.833945 45.724499,17.118466 c -0.420762,-0.124344 -1.022546,-0.309715 -1.236967,-0.400711 -0.0606,-0.02571 0.01777,-0.139305 -0.0535,-0.149585 -8.92e-4,-9.1e-5 -0.817927,0.160409 -0.819354,0.160465 -4.023733,0.04677 -8.752122,1.226901 -12.133778,2.858005 -0.312005,0.150586 -0.508716,0.67831 -0.812105,0.801262 -0.186016,0.07545 -0.483162,-0.0019 -0.615215,0.120483 -0.139063,0.128902 0.0018,0.330363 -0.04754,0.490983 -0.379163,1.310559 -0.774011,1.118649 -0.585382,2.683461 0.06359,0.525542 -0.164032,1.098402 -0.08321,1.622226 0.101621,0.662143 1.014402,3.534313 1.433497,4.055472 0.84907,1.055879 0.392829,0.03496 0.985935,0.93133 0.353012,0.533356 -0.32092,0.153641 0.523574,0.860395 0.131334,0.109717 0.373219,0.118545 0.515255,0.220523 0.104589,0.07517 1.478726,1.322634 1.6084,1.451612 0.275157,0.273696 0.367274,0.730161 0.781675,0.970565 0.123619,0.07162 0.327456,0.01173 0.46355,0.07 0.562204,0.2404 0.128357,0.23623 0.416599,0.56065 0.563393,0.634128 1.767792,0.998131 2.329936,1.631784 0.164031,0.185197 0.281099,0.551767 0.470682,0.710788 0.199675,0.167519 0.664838,0.298103 0.826546,0.480314 0.14739,0.16595 0.193732,0.547353 0.265647,0.750958 0.35004,0.99045 0.490886,1.34488 -0.797425,2.083576 -0.249602,0.143046 -0.433832,0.351863 -0.713332,0.460417 -0.630666,0.244797 -6.527378,2.070965 -7.420604,1.935661 -0.195533,-0.02953 -0.331615,-0.165606 -0.51644,-0.220322 -0.838494,-0.248509 -1.774507,-0.358094 -2.625654,-0.610181 -0.697111,-0.206472 -1.464225,-0.313724 -2.162047,-0.53945 -0.876824,-0.283578 -1.080367,-0.661919 -1.707527,-1.111497 -1.595684,-1.143968 -1.977694,-1.587231 -2.859568,-3.133168 -0.527139,-0.924128 -0.512874,-2.656845 -1.220978,-3.454113 -0.339343,-0.381809 -0.338155,-0.770129 -0.629895,-1.161811 -0.642432,-0.862603 -1.259131,-1.690929 -1.979895,-2.502517 -0.610695,-0.687544 0.04162,0.260846 -0.463546,-0.07 -0.216911,-0.14116 -0.165814,-0.453796 -0.4166,-0.560651 -0.37203,-0.15861 -1.890395,-0.800376 -2.269614,-0.840657 -1.302221,-0.138304 -2.801866,0.113797 -4.104854,0.16178 -3.0222265,0.111314 -4.6183865,0.423108 -7.5351257,0.994393 -0.3476626,0.06817 -1.4815181,0.186569 -1.84374049,0.361122 -0.24722806,0.119145 -0.43323856,0.463972 -0.66020307,0.610755 -0.19908882,0.12882 -0.57824654,0.189166 -0.76616372,0.310802 -0.0177731,0.01051 -0.57111792,1.302662 -0.59982162,1.401885 -0.2995218,1.028086 -0.794214,1.472114 -0.4106608,2.557127"
       id="path10" />
  </g>
</svg>
