<?xml version="1.0" encoding="UTF-8" standalone="no"?>
<svg
   id="svg8"
   version="1.1"
   viewBox="0 0 135.43663 43.858485"
   height="165.76433"
   width="511.88647"
   sodipodi:docname="enjoy_logo.ink.svg"
   inkscape:version="1.3.2 (091e20ef0f, 2023-11-25, custom)"
   inkscape:export-filename="enjoy_logo.svg"
   inkscape:export-xdpi="96"
   inkscape:export-ydpi="96"
   xmlns:inkscape="http://www.inkscape.org/namespaces/inkscape"
   xmlns:sodipodi="http://sodipodi.sourceforge.net/DTD/sodipodi-0.dtd"
   xmlns="http://www.w3.org/2000/svg"
   xmlns:svg="http://www.w3.org/2000/svg"
   xmlns:rdf="http://www.w3.org/1999/02/22-rdf-syntax-ns#"
   xmlns:cc="http://creativecommons.org/ns#"
   xmlns:dc="http://purl.org/dc/elements/1.1/">
  <sodipodi:namedview
     pagecolor="#ffffff"
     bordercolor="#666666"
     borderopacity="1"
     objecttolerance="10"
     gridtolerance="10"
     guidetolerance="10"
     inkscape:pageopacity="0"
     inkscape:pageshadow="2"
     inkscape:window-width="2552"
     inkscape:window-height="1404"
     id="namedview848"
     showgrid="false"
     inkscape:zoom="1"
     inkscape:cx="264.5"
     inkscape:cy="73.5"
     inkscape:window-x="0"
     inkscape:window-y="0"
     inkscape:window-maximized="0"
     inkscape:current-layer="svg8"
     inkscape:document-rotation="0"
     inkscape:showpageshadow="2"
     inkscape:pagecheckerboard="0"
     inkscape:deskcolor="#d1d1d1"
     inkscape:export-bgcolor="#ffffffff" />
  <defs
     id="defs2">
    <rect
       x="81.803925"
       y="76.801781"
       width="33.16024"
       height="41.75185"
       id="rect1477" />
  </defs>
  <metadata
     id="metadata5">
    <rdf:RDF>
      <cc:Work
         rdf:about="">
        <dc:format>image/svg+xml</dc:format>
        <dc:type
           rdf:resource="http://purl.org/dc/dcmitype/StillImage" />
      </cc:Work>
    </rdf:RDF>
  </metadata>
  <rect
     style="fill:#ffffff;fill-opacity:1;stroke:none;stroke-width:1.09936;stroke-dasharray:none;stroke-dashoffset:49.8;stroke-opacity:1;paint-order:fill markers stroke"
     id="rect31833"
     width="137.87061"
     height="46.398895"
     x="-1.2169855"
     y="-1.2702068"
     rx="0"
     ry="0"
     sodipodi:insensitive="true"
     inkscape:label="background" />
  <g
     id="g10"
     inkscape:label="letters"
     style="display:inline;fill:#000000;fill-opacity:1">
    <path
       style="font-weight:900;font-size:29.7674px;line-height:1.25;font-family:'Exo 2';-inkscape-font-specification:'Exo 2, Heavy';fill:#000000;stroke-width:0.778484;fill-opacity:1"
       d="m 90.044436,11.827677 h 5.983248 l 2.798135,9.436266 q 0.0893,0.297674 0.148837,0.803719 0.0893,0.506046 0.11907,0.982325 h 0.11907 q 0.05953,-0.595348 0.148837,-1.012092 0.119069,-0.446511 0.208371,-0.744185 l 2.857666,-9.466033 h 5.80465 l -6.51906,17.503231 q -0.74419,1.994416 -1.756279,3.363716 -0.982325,1.369301 -2.440927,2.053951 -1.458603,0.68465 -3.631623,0.68465 -0.773953,0 -1.339533,-0.0893 -0.565581,-0.05953 -0.982324,-0.148837 v -4.46511 q 0.327441,0.05954 0.773952,0.11907 0.476278,0.05953 0.982324,0.05953 1.399068,0 2.053951,-0.833487 0.68465,-0.80372 1.101394,-1.875346 l 0.05953,-0.148837 z"
       transform="scale(1.0393779,0.96211398)"
       id="path7" />
    <path
       style="font-weight:900;font-size:29.7674px;line-height:1.25;font-family:'Exo 2';-inkscape-font-specification:'Exo 2, Heavy';fill:#000000;stroke-width:0.778484;fill-opacity:1"
       d="m 63.611038,35.433225 q -0.68465,0 -1.577672,-0.119069 -0.893022,-0.0893 -1.48837,-0.238139 v -4.435343 q 0.476278,0.119069 0.893022,0.178604 0.386976,0.0893 0.863254,0.0893 0.684651,0 1.190696,-0.506045 0.535814,-0.476279 0.535814,-1.964649 V 11.827677 h 5.685573 v 17.800905 q 0,1.48837 -0.595348,2.798136 -0.56558,1.339533 -1.905113,2.17302 -1.339533,0.833487 -3.601856,0.833487 z"
       transform="scale(1.0393779,0.96211398)"
       id="path4" />
    <path
       style="font-weight:900;font-size:29.7674px;line-height:1.25;font-family:'Exo 2';-inkscape-font-specification:'Exo 2, Heavy';fill:#000000;stroke-width:0.778484;fill-opacity:1"
       d="m 63.878945,7.7197752 q 0,-1.5181374 0.863254,-2.0241832 0.893022,-0.5060458 2.143253,-0.5060458 1.220464,0 2.113486,0.5060458 0.922789,0.5060458 0.922789,2.0241832 0,1.4586027 -0.922789,1.9944159 -0.893022,0.5060459 -2.113486,0.5060459 -1.250231,0 -2.143253,-0.5060459 -0.863254,-0.5358132 -0.863254,-1.9944159 z"
       id="path3"
       transform="scale(1.0393779,0.96211398)"
       inkscape:label="path3" />
    <path
       style="font-weight:900;font-size:29.7674px;line-height:1.25;font-family:'Exo 2';-inkscape-font-specification:'Exo 2, Heavy';fill:#000000;stroke-width:0.778484;fill-opacity:1"
       d="m 54.383142,11.530003 q 2.559996,0 4.167436,1.428835 1.60744,1.428835 1.60744,4.613947 v 10.716264 h -5.685574 v -8.989755 q 0,-1.637207 -0.476278,-2.470694 -0.476279,-0.833487 -1.518138,-0.833487 -1.607439,0 -2.17302,1.309765 -0.535813,1.309766 -0.535813,3.78046 v 7.203711 H 44.083621 V 11.827677 h 4.286506 l 0.773952,2.17302 h 0.208372 q 0.773953,-1.160929 2.024183,-1.815812 1.279999,-0.654882 3.006508,-0.654882 z"
       transform="scale(1.0393779,0.96211398)"
       id="path2" />
    <path
       id="path1"
       style="font-weight:900;font-size:29.7674px;line-height:1.25;font-family:'Exo 2';-inkscape-font-specification:'Exo 2, Heavy';fill:#000000;stroke-width:0.778484;fill-opacity:1"
       d="m 33.099675,11.530214 c -1.607438,0 -3.026524,0.307569 -4.256908,0.922761 -1.21054,0.615192 -2.163255,1.557828 -2.857827,2.827903 -0.674727,1.270074 -1.011774,2.897333 -1.011774,4.881824 0,1.944801 0.376992,3.542434 1.131099,4.792663 0.754107,1.25023 1.775731,2.172936 3.06565,2.768283 1.309764,0.575502 2.798256,0.863141 4.465229,0.863141 1.428834,0 2.609742,-0.09911 3.542452,-0.297561 0.952557,-0.198449 1.825878,-0.506018 2.619674,-0.92276 v -4.078303 c -0.912866,0.436588 -1.796174,0.753853 -2.649505,0.952302 -0.853331,0.198449 -1.796059,0.298098 -2.827995,0.298098 -1.151005,0 -2.033816,-0.277942 -2.649008,-0.8336 -0.595344,-0.555657 -0.912916,-1.26021 -0.952609,-2.113541 h 10.150554 v -2.530342 c 0,-2.520304 -0.694564,-4.405575 -2.083708,-5.655804 -1.389144,-1.25023 -3.28409,-1.875064 -5.685324,-1.875064 z m 0.208321,3.869366 c 0.773952,0 1.359163,0.258013 1.756062,0.77398 0.416741,0.496123 0.634947,1.11126 0.654794,1.845522 H 30.83698 c 0.07938,-0.912866 0.337532,-1.577559 0.774119,-1.994302 0.456434,-0.416743 1.02217,-0.6252 1.696897,-0.6252 z"
       transform="scale(1.0393779,0.96211398)" />
  </g>
  <rect
     style="display:none;fill:#000000;stroke:#ffffff;stroke-width:0.458442;stroke-miterlimit:4;stroke-dasharray:none;stroke-opacity:1"
     id="rect860"
     width="91.394142"
     height="73.514465"
     x="210.84485"
     y="-62.363567" />
  <text
     xml:space="preserve"
     style="font-style:italic;font-variant:normal;font-weight:900;font-stretch:normal;font-size:27.3056px;line-height:1.25;font-family:'SauceCodePro Nerd Font Mono';-inkscape-font-specification:'SauceCodePro Nerd Font Mono, Heavy Italic';font-variant-ligatures:normal;font-variant-caps:normal;font-variant-numeric:normal;font-variant-east-asian:normal;display:none;fill:#000000;fill-opacity:1;stroke:#ffffff;stroke-width:0.529167;stroke-miterlimit:4;stroke-dasharray:none;stroke-opacity:1"
     x="215.18022"
     y="-22.296217"
     id="text841"><tspan
       id="tspan839"
       x="215.18022"
       y="-22.296217"
       style="font-style:italic;font-variant:normal;font-weight:900;font-stretch:normal;font-size:27.3056px;font-family:'SauceCodePro Nerd Font Mono';-inkscape-font-specification:'SauceCodePro Nerd Font Mono, Heavy Italic';font-variant-ligatures:normal;font-variant-caps:normal;font-variant-numeric:normal;font-variant-east-asian:normal;stroke:#ffffff;stroke-width:0.529167;stroke-miterlimit:4;stroke-dasharray:none;stroke-opacity:1">Enjoy</tspan></text>
  <g
     id="g845"
     transform="matrix(2.5766817,0,0,2.5766817,35.550825,-190.16624)"
     style="display:none">
    <g
       id="g2769"
       transform="matrix(0.07587978,0,0,0.07587978,57.509,57.105741)">
      <ellipse
         style="fill:#000000;fill-opacity:1;stroke-width:0.264583"
         id="path2744"
         cx="86.7631"
         cy="143.70882"
         rx="40.597324"
         ry="12.537492" />
      <g
         id="g2764">
        <ellipse
           style="fill:#454545;fill-opacity:1;stroke-width:0.264583"
           id="ellipse2748"
           cx="86.7631"
           cy="140.53386"
           rx="40.597324"
           ry="12.537492" />
      </g>
    </g>
    <rect
       style="fill:#000000;stroke-width:0.0160669"
       id="rect2740"
       width="1.7473407"
       height="6.5879288"
       x="63.22348"
       y="61.179108" />
    <circle
       style="fill:#800000;fill-opacity:1;stroke-width:0.0192672"
       id="path2742"
       cx="64.097153"
       cy="60.578232"
       r="3.0846546" />
    <ellipse
       style="fill:#000000;fill-opacity:1;stroke-width:0.00717048"
       id="ellipse2756"
       cx="64.092567"
       cy="67.769409"
       rx="1.1002274"
       ry="0.33977836" />
  </g>
  <g
     id="g1018"
     transform="matrix(0.48139071,0,0,0.43619325,57.512349,4.9236496)"
     style="display:inline;opacity:1;stroke-width:1.47135"
     inkscape:label="stick">
    <g
       id="g1010"
       transform="matrix(0.49261847,0,0,0.49261847,-1.4356473,5.6931365)"
       style="stroke-width:1.47135">
      <ellipse
         style="fill:#000000;fill-opacity:1;stroke-width:0.389294"
         id="ellipse1004"
         cx="86.7631"
         cy="143.70882"
         rx="40.597324"
         ry="12.537492" />
      <g
         id="g1008"
         style="fill:#ffffff;fill-opacity:1;stroke-width:1.47135">
        <ellipse
           style="fill:#ffffff;fill-opacity:1;stroke-width:0.389294"
           id="ellipse1006"
           cx="86.7631"
           cy="140.53386"
           rx="40.597324"
           ry="12.537492"
           inkscape:label="ellipse1006" />
      </g>
    </g>
    <path
       id="path1012"
       style="fill:#000000;stroke-width:0.128936"
       d="m 45.637539,45.774373 h 11.3439 L 47.450909,75.28375 H 36.107025 Z"
       sodipodi:nodetypes="ccccc" />
    <circle
       style="fill:#a61815;fill-opacity:1;stroke-width:0.184042"
       id="circle1014"
       cx="54.539787"
       cy="34.651894"
       r="20.025862" />
    <ellipse
       style="fill:#000000;fill-opacity:1;stroke-width:0.068493"
       id="ellipse1016"
       cx="41.305485"
       cy="74.922646"
       rx="7.1427765"
       ry="2.2058723" />
  </g>
</svg>
